<svg width="70" height="70" viewBox="0 0 70 70" fill="none" xmlns="http://www.w3.org/2000/svg">
<g filter="url(#filter0_d_2799_334)">
<path fill-rule="evenodd" clip-rule="evenodd" d="M35 46C23.0009 46 19 41.9991 19 30C19 18.0009 23.0009 14 35 14C46.9991 14 51 18.0009 51 30C51 41.9991 46.9991 46 35 46Z" fill="white"/>
<path fill-rule="evenodd" clip-rule="evenodd" d="M35 46C23.0009 46 19 41.9991 19 30C19 18.0009 23.0009 14 35 14C46.9991 14 51 18.0009 51 30C51 41.9991 46.9991 46 35 46Z" fill="url(#paint0_radial_2799_334)"/>
</g>
<defs>
<filter id="filter0_d_2799_334" x="0" y="0" width="70" height="70" filterUnits="userSpaceOnUse" color-interpolation-filters="sRGB">
<feFlood flood-opacity="0" result="BackgroundImageFix"/>
<feColorMatrix in="SourceAlpha" type="matrix" values="0 0 0 0 0 0 0 0 0 0 0 0 0 0 0 0 0 0 127 0" result="hardAlpha"/>
<feOffset dy="5"/>
<feGaussianBlur stdDeviation="9.5"/>
<feComposite in2="hardAlpha" operator="out"/>
<feColorMatrix type="matrix" values="0 0 0 0 0 0 0 0 0 0 0 0 0 0 0 0 0 0 0.23 0"/>
<feBlend mode="normal" in2="BackgroundImageFix" result="effect1_dropShadow_2799_334"/>
<feBlend mode="normal" in="SourceGraphic" in2="effect1_dropShadow_2799_334" result="shape"/>
</filter>
<radialGradient id="paint0_radial_2799_334" cx="0" cy="0" r="1" gradientUnits="userSpaceOnUse" gradientTransform="translate(33.6667 23.3333) rotate(155.556) scale(16.1107)">
<stop stop-color="#818181"/>
<stop offset="0.5" stop-color="#474747"/>
<stop offset="1" stop-color="#292A29"/>
</radialGradient>
</defs>
</svg>
