<svg width="71" height="70" viewBox="0 0 71 70" fill="none" xmlns="http://www.w3.org/2000/svg">
<g filter="url(#filter0_d_2799_349)">
<path fill-rule="evenodd" clip-rule="evenodd" d="M35.5 46C23.1259 46 19 41.9991 19 30C19 18.0009 23.1259 14 35.5 14C47.8741 14 52 18.0009 52 30C52 41.9991 47.8741 46 35.5 46Z" fill="white"/>
<path fill-rule="evenodd" clip-rule="evenodd" d="M35.5 46C23.1259 46 19 41.9991 19 30C19 18.0009 23.1259 14 35.5 14C47.8741 14 52 18.0009 52 30C52 41.9991 47.8741 46 35.5 46Z" fill="url(#paint0_radial_2799_349)"/>
</g>
<defs>
<filter id="filter0_d_2799_349" x="0" y="0" width="71" height="70" filterUnits="userSpaceOnUse" color-interpolation-filters="sRGB">
<feFlood flood-opacity="0" result="BackgroundImageFix"/>
<feColorMatrix in="SourceAlpha" type="matrix" values="0 0 0 0 0 0 0 0 0 0 0 0 0 0 0 0 0 0 127 0" result="hardAlpha"/>
<feOffset dy="5"/>
<feGaussianBlur stdDeviation="9.5"/>
<feComposite in2="hardAlpha" operator="out"/>
<feColorMatrix type="matrix" values="0 0 0 0 0 0 0 0 0 0 0 0 0 0 0 0 0 0 0.23 0"/>
<feBlend mode="normal" in2="BackgroundImageFix" result="effect1_dropShadow_2799_349"/>
<feBlend mode="normal" in="SourceGraphic" in2="effect1_dropShadow_2799_349" result="shape"/>
</filter>
<radialGradient id="paint0_radial_2799_349" cx="0" cy="0" r="1" gradientUnits="userSpaceOnUse" gradientTransform="translate(34.125 23.3333) rotate(156.213) scale(16.5291 16.1937)">
<stop stop-color="#85D628"/>
<stop offset="0.5" stop-color="#4F8B0B"/>
<stop offset="1" stop-color="#335908"/>
</radialGradient>
</defs>
</svg>
