<svg width="34" height="32" viewBox="0 0 34 32" fill="none" xmlns="http://www.w3.org/2000/svg">
<path d="M15.4599 23.4182V29.7188C15.4599 30.4103 16.1439 30.8938 16.7958 30.6631L25.0049 27.758C25.405 27.6164 25.6724 27.2381 25.6724 26.8137V23.2872M15.4599 23.4182C14.8687 22.5403 12.6835 20.3557 8.67195 18.6406C7.63235 18.0894 6.95968 16.7419 7.4489 15.7006C7.70088 15.1643 8.14756 14.7904 8.67195 14.6209M15.4599 23.4182C18.0079 23.4182 23.5076 23.4182 25.122 23.4182C25.3171 23.4182 25.5004 23.3717 25.6724 23.2872M25.6724 23.2872C26.1024 23.0757 26.4612 22.6262 26.7543 22.0704M28.1731 15.394C28.706 11.2718 29.3416 6.2882 29.3416 6.0226C29.3416 5.59384 29.3416 4.49132 27.7516 4.18506C26.4796 3.94006 25.8762 5.02216 25.7336 5.59384C25.5682 6.54945 25.2901 8.16821 25.0806 9.417C24.9562 10.1582 24.0551 10.5605 23.3504 10.2993C22.0884 9.83145 20.6091 9.59961 19.5025 9.50524C18.957 9.45873 18.5176 9.01308 18.5176 8.4656V2.96004C18.5787 2.30669 18.2852 1 16.6218 1C14.9585 1 14.5426 2.30669 14.5426 2.96004V9.7283M28.1731 15.394C28.0178 16.5955 27.8712 17.7237 27.7516 18.6406C27.634 19.5596 27.3141 21.0089 26.7543 22.0704M28.1731 15.394L32.383 17.0986C32.8977 17.307 33.1447 17.8944 32.9336 18.408L31.1299 22.7953C30.9192 23.308 30.3323 23.552 29.8202 23.34L26.7543 22.0704M14.5426 9.7283V15.0109C14.5426 15.7212 13.8243 16.2057 13.1669 15.9366C12.0921 15.4966 10.8508 14.9827 10.262 14.7206C9.72819 14.483 9.16564 14.4614 8.67195 14.6209M14.5426 9.7283L12.6981 8.9515C12.2193 8.74988 11.6659 8.94772 11.4234 9.40717L11.3348 9.57517M8.67195 14.6209L9.36298 13.3115M9.36298 13.3115L5.01468 11.4442C4.50537 11.2255 4.27636 10.6301 4.50782 10.1264V10.1264M9.36298 13.3115L11.3348 9.57517M11.3348 9.57517L6.66222 7.53678C6.21611 7.34216 5.6963 7.54039 5.49305 7.98264V7.98264M5.49305 7.98264L2.67438 6.77299C2.12345 6.53656 1.48961 6.83375 1.31902 7.40848L1.21962 7.74336C1.07536 8.22939 1.31698 8.74659 1.78233 8.94782L4.50782 10.1264M5.49305 7.98264L4.50782 10.1264" stroke="#E73E2B" stroke-width="1.50963"/>
<path d="M18.9448 14.1108L22.7974 17.9634" stroke="#141414" stroke-width="1.50963" stroke-linecap="round"/>
<path d="M22.7969 14.1108L18.9443 17.9634" stroke="#141414" stroke-width="1.50963" stroke-linecap="round"/>
</svg>
