<svg width="46" height="56" viewBox="0 0 46 56" fill="none" xmlns="http://www.w3.org/2000/svg">
<path d="M37.8782 0.624023H7.13981C3.2026 0.624023 0 3.81136 0 7.72982V48.2698C0 52.1883 3.2026 55.3756 7.13981 55.3756H10.9202H13.6688H31.2584H34.007H37.8782C41.8154 55.3756 45.018 52.1883 45.018 48.2698V7.72982C45.018 3.81136 41.8154 0.624023 37.8782 0.624023ZM3.12006 13.6198L13.413 23.6255H3.12006V13.6198ZM3.12006 26.7224H16.6073L20.9077 30.9038V37.5085L20.8994 39.0611H3.12006V26.7224ZM24.0278 23.4119L41.4935 5.98829C41.7494 6.51403 41.8979 7.10549 41.8979 7.72982V17.6451L24.0195 34.7401V23.4119H24.0278ZM41.8979 21.9496V38.5271L33.2228 30.2548L41.8979 21.9496ZM39.1493 3.93459L24.0278 19.017V3.72922H37.8782C38.3239 3.72922 38.7449 3.80315 39.1493 3.93459ZM7.13981 3.72922H20.9077V26.5663L3.12006 9.2742V7.72982C3.12006 5.52825 4.91945 3.72922 7.13981 3.72922ZM10.9202 52.2787H7.13981C4.91945 52.2787 3.12006 50.4796 3.12006 48.2781V42.1745H20.8912L20.8829 45.1236C20.8747 49.0749 17.6391 52.2869 13.6688 52.2869H10.9202V52.2787ZM37.8782 52.2787H34.007H31.2584C27.2881 52.2787 24.0525 49.0667 24.0443 45.1154L24.0278 39.0446L30.9695 32.4071L41.8979 42.8316V48.2863C41.8979 50.4878 40.0985 52.2787 37.8782 52.2787Z" fill="#F3A17C"/>
</svg>
