<svg width="30" height="28" viewBox="0 0 30 28" fill="none" xmlns="http://www.w3.org/2000/svg">
<path fill-rule="evenodd" clip-rule="evenodd" d="M13.0377 4.04288C12.126 4.52389 11.041 5.25908 9.47874 6.32104L7.63096 7.57707C6.37371 8.43169 5.50775 9.02205 4.87885 9.54663C4.27044 10.0541 3.96971 10.4322 3.79249 10.8228C3.6163 11.2112 3.53796 11.6652 3.57608 12.4055C3.61569 13.1746 3.77214 14.1417 4.00268 15.5522L4.38902 17.9156C4.71535 19.912 4.94378 21.2938 5.26305 22.3296C5.57109 23.329 5.9231 23.8611 6.40334 24.2367C6.70904 24.4757 7.07158 24.655 7.56556 24.789C8.23359 24.9702 9.09725 24.7121 9.84041 24.0134C10.745 23.163 10.1432 21.6443 8.90163 21.6443H8.62305C7.95673 21.6443 7.41657 21.1042 7.41657 20.4378V20.2686C7.41657 19.6957 7.88094 19.2313 8.45377 19.2313C9.39334 19.2313 9.84877 18.082 9.16422 17.4384L8.09405 16.4323C7.57187 15.9414 7.57187 15.1118 8.09405 14.6209C8.57257 14.171 9.3185 14.171 9.79703 14.6209L11.3309 16.0629C12.2243 16.9029 13.6893 16.2698 13.6898 15.0435L13.69 14.6156C13.6903 13.9069 14.2651 13.3326 14.9738 13.3329C15.6826 13.3331 16.2569 13.9079 16.2566 14.6167L16.2566 14.7431C16.2561 15.9699 17.7217 16.604 18.6155 15.7637L20.1162 14.3528C20.5947 13.9029 21.3407 13.9029 21.8192 14.3528C22.3414 14.8437 22.3414 15.6733 21.8192 16.1642L20.7794 17.1417C19.9816 17.8918 20.5141 19.2313 21.6092 19.2313C22.2755 19.2313 22.8163 19.7715 22.8163 20.4378C22.8163 21.1042 22.2762 21.6443 21.6098 21.6443H20.8007C19.5325 21.6443 18.9178 23.1957 19.8418 24.0643L19.8705 24.0913C20.5688 24.7478 21.4226 25.0359 22.1578 24.9025C22.9367 24.7612 23.4351 24.5451 23.8296 24.2367C24.3098 23.8611 24.6618 23.3291 24.9698 22.3297C25.289 21.2942 25.5174 19.9129 25.8437 17.9173L25.8439 17.9162L25.844 17.9156L26.2303 15.552C26.4608 14.1415 26.6172 13.1745 26.6568 12.4054C26.6949 11.6652 26.6166 11.2112 26.4404 10.8228C26.2632 10.4322 25.9625 10.0541 25.3541 9.54663C24.7252 9.02205 23.8592 8.43169 22.6019 7.57708L20.7542 6.32104C19.1918 5.25905 18.1069 4.52385 17.1951 4.04285C16.3131 3.57751 15.7052 3.41297 15.1165 3.41297C14.5277 3.41297 13.9198 3.57752 13.0377 4.04288ZM15.773 23.6516C15.2341 23.1449 14.394 23.1449 13.8551 23.6516L11.6553 25.7197C10.522 26.7851 8.73585 27.6178 6.85417 27.1074C6.07329 26.8957 5.38033 26.5752 4.76208 26.0918C3.74354 25.2954 3.18559 24.2592 2.79783 23.0012C2.42662 21.7968 2.17525 20.2588 1.86554 18.3639L1.46583 15.9187L1.45561 15.8562C1.23776 14.5235 1.0593 13.4318 1.01246 12.5222C0.963396 11.5695 1.05047 10.7163 1.43163 9.87619C1.81175 9.03832 2.40797 8.38186 3.17543 7.74169C3.91157 7.12765 4.8826 6.46761 6.07427 5.65759L6.12711 5.62168L8.03692 4.32349C9.52242 3.3137 10.7261 2.49549 11.7817 1.93859C12.8816 1.3583 13.9304 1 15.1165 1C16.3025 1 17.3513 1.35828 18.4512 1.93856C19.5068 2.49548 20.7106 3.31376 22.1963 4.32368L22.258 4.36565L24.1057 5.62166L24.1579 5.65712C25.3499 6.46735 26.3212 7.12753 27.0575 7.74169C27.825 8.38187 28.4211 9.03833 28.8013 9.87619C29.1824 10.7163 29.2695 11.5694 29.2204 12.5221C29.1736 13.4317 28.9952 14.5233 28.7773 15.8559L28.3812 18.2797L28.3811 18.2804L28.3808 18.282L28.3807 18.2827L28.3673 18.3644C28.0576 20.2592 27.8062 21.7971 27.435 23.0014C27.0473 24.2593 26.4893 25.2954 25.4708 26.0918C24.6565 26.7285 23.7208 27.0765 22.644 27.2718C20.8514 27.5969 19.1777 26.8524 18.0556 25.7975L15.773 23.6516Z" fill="#FEB93C" stroke="#FEB93C"/>
</svg>
